<svg version="1.1" id="Layer_1" xmlns="http://www.w3.org/2000/svg" xmlns:xlink="http://www.w3.org/1999/xlink" x="0px" y="0px"
	 width="100%" viewBox="0 0 256 256" enable-background="new 0 0 256 256" xml:space="preserve">
<path fill="#2B2C3D" opacity="1.000000" stroke="none" 
	d="
M237.000000,257.000000 
	C164.979111,257.000000 92.958206,257.000000 20.468063,256.531342 
	C19.999207,171.041794 19.999603,86.020897 20.000000,1.000000 
	C92.020897,1.000000 164.041794,1.000000 236.531937,1.468657 
	C237.000793,86.958206 237.000397,171.979111 237.000000,257.000000 
M228.997940,84.500000 
	C228.997849,65.502579 229.005463,46.505154 228.994934,27.507740 
	C228.988037,15.089814 222.967056,9.007998 210.649277,9.006083 
	C156.156952,8.997609 101.664627,8.997349 47.172298,9.006264 
	C35.046444,9.008247 28.917582,15.038005 28.915159,27.021688 
	C28.901417,95.012108 28.901358,163.002533 28.915255,230.992950 
	C28.917702,242.963348 35.057240,248.992294 47.186539,248.994141 
	C101.678864,249.002487 156.171188,249.002380 210.663513,248.994110 
	C222.965714,248.992249 228.992966,242.900314 228.994797,230.479584 
	C229.001938,182.153061 228.997833,133.826523 228.997940,84.500000 
z"/>
<path fill="#FFFFFF" opacity="1.000000" stroke="none" 
	d="
M237.469040,257.000000 
	C237.000397,171.979111 237.000793,86.958206 237.000595,1.468657 
	C243.656784,1.000000 250.313553,1.000000 256.954956,1.000000 
	C256.954956,86.333344 256.954956,171.666687 256.954956,257.000000 
	C250.585953,257.000000 244.262009,257.000000 237.469040,257.000000 
z"/>
<path fill="#FFFFFF" opacity="1.000000" stroke="none" 
	d="
M19.530624,1.000000 
	C19.999603,86.020897 19.999207,171.041794 19.999405,256.531342 
	C13.676131,257.000000 7.352263,257.000000 1.044137,257.000000 
	C1.044137,171.666656 1.044137,86.333321 1.044137,1.000000 
	C7.079266,1.000000 13.070257,1.000000 19.530624,1.000000 
z"/>
<path fill="#5C707E" opacity="1.000000" stroke="none" 
	d="
M228.997925,85.000000 
	C228.997833,133.826523 229.001938,182.153061 228.994797,230.479584 
	C228.992966,242.900314 222.965714,248.992249 210.663513,248.994110 
	C156.171188,249.002380 101.678864,249.002487 47.186539,248.994141 
	C35.057240,248.992294 28.917702,242.963348 28.915255,230.992950 
	C28.901358,163.002533 28.901417,95.012108 28.915159,27.021688 
	C28.917582,15.038005 35.046444,9.008247 47.172298,9.006264 
	C101.664627,8.997349 156.156952,8.997609 210.649277,9.006083 
	C222.967056,9.007998 228.988037,15.089814 228.994934,27.507740 
	C229.005463,46.505154 228.997849,65.502579 228.997925,85.000000 
M62.724113,83.992828 
	C106.698647,83.992790 150.673187,84.002274 194.647720,83.985390 
	C204.501617,83.981613 208.972198,79.469131 208.995773,69.575821 
	C209.020386,59.248535 209.044540,48.920902 208.987198,38.593872 
	C208.937958,29.726137 204.255829,25.022724 195.336563,25.015764 
	C150.529236,24.980795 105.721848,24.980303 60.914520,25.018963 
	C52.810692,25.025955 48.021420,29.953661 47.979675,38.168839 
	C47.925507,48.829052 47.940765,59.489811 47.971771,70.150200 
	C47.998600,79.373901 52.299107,83.650192 62.724113,83.992828 
M205.007233,216.493942 
	C205.006943,197.005310 205.027222,177.516632 204.994965,158.028046 
	C204.984009,151.405319 201.880753,148.208282 195.292191,148.105652 
	C188.631012,148.001907 181.966934,148.063080 175.304230,148.083664 
	C167.232040,148.108612 164.172424,151.112137 164.126480,159.264450 
	C164.061691,170.757385 164.108200,182.250946 164.109177,193.744247 
	C164.110123,204.737823 164.023514,215.732437 164.150681,226.724579 
	C164.224319,233.090927 167.262405,236.699783 172.796463,236.849228 
	C180.619385,237.060516 188.456467,237.057800 196.279572,236.849594 
	C201.934677,236.699081 204.898987,233.305588 204.995209,227.484360 
	C205.050247,224.153870 205.006516,220.821747 205.007233,216.493942 
M79.428886,196.997543 
	C73.442505,197.000732 67.453377,196.892746 61.470551,197.040176 
	C56.108147,197.172302 53.164726,200.106049 53.041107,205.462509 
	C52.895348,211.778107 52.904621,218.101746 53.036285,224.417953 
	C53.149158,229.832855 56.034618,232.851456 61.348419,232.951233 
	C69.493660,233.104218 77.646095,233.103348 85.791229,232.946503 
	C90.665726,232.852631 93.756073,229.981171 93.913094,225.272354 
	C94.140182,218.462296 94.132957,211.634247 93.922462,204.823257 
	C93.776031,200.085220 90.723473,197.329102 85.885277,197.029541 
	C84.062813,196.916687 82.228050,197.002380 79.428886,196.997543 
M53.423908,179.514618 
	C54.853077,183.205994 57.581764,184.989151 61.504959,184.992004 
	C69.493324,184.997818 77.483398,185.093872 85.469467,184.958542 
	C90.861382,184.867203 93.827393,181.929230 93.956314,176.587173 
	C94.108841,170.266708 94.092575,163.937805 93.965034,157.616287 
	C93.855545,152.189590 90.978691,149.153183 85.671295,149.050598 
	C77.519569,148.893066 69.360100,148.889587 61.208668,149.054932 
	C56.136349,149.157822 53.147297,152.156418 53.056770,157.236267 
	C52.929356,164.385910 53.124203,171.541290 53.423908,179.514618 
M90.716614,135.448349 
	C91.808731,133.135040 93.675461,130.876251 93.842865,128.497864 
	C94.285942,122.203018 94.099304,115.854111 93.961586,109.531113 
	C93.844170,104.139915 90.927612,101.146042 85.582077,101.046295 
	C77.594086,100.897247 69.599663,100.907349 61.611092,101.038818 
	C56.001755,101.131134 53.128811,104.124779 53.026966,109.835754 
	C52.917156,115.993332 52.906704,122.156380 53.032383,128.313370 
	C53.147812,133.968307 56.072208,136.871231 61.757877,136.969650 
	C68.581314,137.087753 75.410522,137.101364 82.232628,136.951096 
	C84.837784,136.893707 87.430176,136.257462 90.716614,135.448349 
M108.053612,215.489929 
	C108.055534,218.152878 107.990730,220.817902 108.072563,223.478378 
	C108.275078,230.062424 111.125031,232.933762 117.603500,232.986893 
	C125.092545,233.048340 132.583527,233.076721 140.071716,232.974625 
	C145.825546,232.896194 148.832947,230.049622 148.960556,224.486603 
	C149.105576,218.165436 149.101181,211.836014 148.961685,205.514603 
	C148.842941,200.133286 145.918198,197.198593 140.569931,197.038177 
	C135.581284,196.888504 130.584808,196.997650 125.591782,196.997299 
	C108.226013,196.996094 108.052826,197.169800 108.053612,215.489929 
M192.361023,100.996841 
	C185.868698,100.998283 179.375015,100.918068 172.884476,101.026520 
	C167.518921,101.116165 164.379700,103.907448 164.151581,109.249954 
	C163.874863,115.730179 163.876801,122.240158 164.151917,128.720551 
	C164.380432,134.103653 167.477310,136.896271 172.854309,136.970306 
	C180.676880,137.078033 188.503571,137.090775 196.325623,136.964752 
	C201.973938,136.873779 204.846298,133.921799 204.973587,128.229813 
	C205.088943,123.071785 205.005371,117.909225 205.002182,112.748665 
	C204.996246,103.138580 202.904083,101.038033 192.361023,100.996841 
M149.003159,118.506958 
	C149.002594,115.844124 149.036697,113.180740 148.994614,110.518562 
	C148.890259,103.918724 146.125275,101.076752 139.578857,101.015259 
	C132.090302,100.944916 124.599754,100.931839 117.111626,101.022385 
	C111.439934,101.090973 108.347610,103.891502 108.132835,109.517647 
	C107.891769,115.832466 107.898087,122.170364 108.134071,128.485626 
	C108.337463,133.928360 111.362961,136.875320 116.615280,136.960388 
	C124.601646,137.089767 132.593689,137.102371 140.579453,136.954514 
	C145.929443,136.855484 148.767960,133.870743 148.974152,128.478378 
	C149.088531,125.486961 149.000168,122.487793 149.003159,118.506958 
M108.053978,159.814575 
	C108.060364,165.309570 107.904411,170.810883 108.117989,176.297821 
	C108.339539,181.989822 111.350372,184.895782 116.933647,184.972641 
	C124.591972,185.078033 132.253693,185.070938 139.912308,184.977493 
	C146.101685,184.901993 148.907974,181.976669 148.985611,175.640701 
	C149.057007,169.813492 149.068146,163.983704 148.981964,158.156906 
	C148.889709,151.919022 146.020752,149.086273 139.708206,149.017212 
	C132.548843,148.938873 125.387840,148.972031 118.227776,149.004745 
	C111.039314,149.037598 108.658455,151.382431 108.053978,159.814575 
z"/>
<path fill="#2B2C3C" opacity="1.000000" stroke="none" 
	d="
M62.258797,83.992584 
	C52.299107,83.650192 47.998600,79.373901 47.971771,70.150200 
	C47.940765,59.489811 47.925507,48.829052 47.979675,38.168839 
	C48.021420,29.953661 52.810692,25.025955 60.914520,25.018963 
	C105.721848,24.980303 150.529236,24.980795 195.336563,25.015764 
	C204.255829,25.022724 208.937958,29.726137 208.987198,38.593872 
	C209.044540,48.920902 209.020386,59.248535 208.995773,69.575821 
	C208.972198,79.469131 204.501617,83.981613 194.647720,83.985390 
	C150.673187,84.002274 106.698647,83.992790 62.258797,83.992584 
M90.500000,75.963417 
	C125.140785,75.963165 159.781723,75.914566 194.422165,76.020668 
	C199.020462,76.034752 201.158646,74.573036 201.060471,69.696709 
	C200.856003,59.541756 200.885529,49.377975 201.050659,39.221592 
	C201.123215,34.758934 199.412125,32.942863 194.876740,32.951382 
	C150.576691,33.034588 106.276375,33.027519 61.976269,32.958813 
	C57.817989,32.952362 55.834507,34.388802 55.892151,38.765099 
	C56.030319,49.255432 56.029602,59.750023 55.892757,70.240395 
	C55.835232,74.650055 57.895294,76.068367 62.021214,76.005608 
	C71.178902,75.866318 80.340187,75.962959 90.500000,75.963417 
z"/>
<path fill="#2C2D3E" opacity="1.000000" stroke="none" 
	d="
M205.007233,216.992157 
	C205.006516,220.821747 205.050247,224.153870 204.995209,227.484360 
	C204.898987,233.305588 201.934677,236.699081 196.279572,236.849594 
	C188.456467,237.057800 180.619385,237.060516 172.796463,236.849228 
	C167.262405,236.699783 164.224319,233.090927 164.150681,226.724579 
	C164.023514,215.732437 164.110123,204.737823 164.109177,193.744247 
	C164.108200,182.250946 164.061691,170.757385 164.126480,159.264450 
	C164.172424,151.112137 167.232040,148.108612 175.304230,148.083664 
	C181.966934,148.063080 188.631012,148.001907 195.292191,148.105652 
	C201.880753,148.208282 204.984009,151.405319 204.994965,158.028046 
	C205.027222,177.516632 205.006943,197.005310 205.007233,216.992157 
M172.238708,213.494873 
	C172.238708,218.434769 172.238708,223.374680 172.238708,228.488190 
	C180.821075,228.488190 188.706772,228.488190 196.604080,228.488190 
	C196.604080,204.263596 196.604080,180.393021 196.604080,156.617950 
	C188.319672,156.617950 180.444000,156.617950 172.238968,156.617950 
	C172.238968,175.548248 172.238968,194.022644 172.238708,213.494873 
z"/>
<path fill="#2B2C3D" opacity="1.000000" stroke="none" 
	d="
M79.913895,196.997559 
	C82.228050,197.002380 84.062813,196.916687 85.885277,197.029541 
	C90.723473,197.329102 93.776031,200.085220 93.922462,204.823257 
	C94.132957,211.634247 94.140182,218.462296 93.913094,225.272354 
	C93.756073,229.981171 90.665726,232.852631 85.791229,232.946503 
	C77.646095,233.103348 69.493660,233.104218 61.348419,232.951233 
	C56.034618,232.851456 53.149158,229.832855 53.036285,224.417953 
	C52.904621,218.101746 52.895348,211.778107 53.041107,205.462509 
	C53.164726,200.106049 56.108147,197.172302 61.470551,197.040176 
	C67.453377,196.892746 73.442505,197.000732 79.913895,196.997559 
M85.997658,219.374634 
	C85.997658,214.640076 85.997658,209.905518 85.997658,205.273438 
	C77.279976,205.273438 69.373444,205.273438 61.323746,205.273438 
	C61.323746,211.909271 61.323746,218.271240 61.323746,224.809326 
	C69.550751,224.809326 77.456230,224.809326 85.700302,224.809326 
	C85.806534,223.212189 85.902046,221.776321 85.997658,219.374634 
z"/>
<path fill="#2B2C3D" opacity="1.000000" stroke="none" 
	d="
M53.302578,179.104416 
	C53.124203,171.541290 52.929356,164.385910 53.056770,157.236267 
	C53.147297,152.156418 56.136349,149.157822 61.208668,149.054932 
	C69.360100,148.889587 77.519569,148.893066 85.671295,149.050598 
	C90.978691,149.153183 93.855545,152.189590 93.965034,157.616287 
	C94.092575,163.937805 94.108841,170.266708 93.956314,176.587173 
	C93.827393,181.929230 90.861382,184.867203 85.469467,184.958542 
	C77.483398,185.093872 69.493324,184.997818 61.504959,184.992004 
	C57.581764,184.989151 54.853077,183.205994 53.302578,179.104416 
M85.992325,174.254669 
	C85.992325,168.658356 85.992325,163.062027 85.992325,157.314301 
	C77.436211,157.314301 69.411522,157.314301 61.365921,157.314301 
	C61.365921,163.996368 61.365921,170.359787 61.365921,176.983429 
	C69.013733,176.983429 76.301872,177.038589 83.586578,176.905334 
	C84.390053,176.890640 85.173798,175.797592 85.992325,174.254669 
z"/>
<path fill="#2B2C3D" opacity="1.000000" stroke="none" 
	d="
M90.372498,135.666687 
	C87.430176,136.257462 84.837784,136.893707 82.232628,136.951096 
	C75.410522,137.101364 68.581314,137.087753 61.757877,136.969650 
	C56.072208,136.871231 53.147812,133.968307 53.032383,128.313370 
	C52.906704,122.156380 52.917156,115.993332 53.026966,109.835754 
	C53.128811,104.124779 56.001755,101.131134 61.611092,101.038818 
	C69.599663,100.907349 77.594086,100.897247 85.582077,101.046295 
	C90.927612,101.146042 93.844170,104.139915 93.961586,109.531113 
	C94.099304,115.854111 94.285942,122.203018 93.842865,128.497864 
	C93.675461,130.876251 91.808731,133.135040 90.372498,135.666687 
M85.997681,116.563110 
	C85.997681,114.144539 85.997681,111.725960 85.997681,109.392075 
	C77.271675,109.392075 69.245911,109.392075 61.265839,109.392075 
	C61.265839,116.029572 61.265839,122.274292 61.265839,128.691711 
	C69.554642,128.691711 77.577431,128.691711 85.997681,128.691711 
	C85.997681,124.772217 85.997681,121.153618 85.997681,116.563110 
z"/>
<path fill="#2C2C3D" opacity="1.000000" stroke="none" 
	d="
M108.053680,215.000519 
	C108.052826,197.169800 108.226013,196.996094 125.591782,196.997299 
	C130.584808,196.997650 135.581284,196.888504 140.569931,197.038177 
	C145.918198,197.198593 148.842941,200.133286 148.961685,205.514603 
	C149.101181,211.836014 149.105576,218.165436 148.960556,224.486603 
	C148.832947,230.049622 145.825546,232.896194 140.071716,232.974625 
	C132.583527,233.076721 125.092545,233.048340 117.603500,232.986893 
	C111.125031,232.933762 108.275078,230.062424 108.072563,223.478378 
	C107.990730,220.817902 108.055534,218.152878 108.053680,215.000519 
M140.969193,206.793549 
	C140.669083,206.249573 140.374191,205.233902 140.068115,205.230530 
	C132.168991,205.143341 124.268707,205.161621 116.412743,205.161621 
	C116.412743,212.061371 116.412743,218.307236 116.412743,224.596863 
	C124.753578,224.596863 132.779343,224.596863 140.995102,224.596863 
	C140.995102,218.711105 140.995102,213.227936 140.969193,206.793549 
z"/>
<path fill="#2C2C3D" opacity="1.000000" stroke="none" 
	d="
M192.835770,100.996857 
	C202.904083,101.038033 204.996246,103.138580 205.002182,112.748665 
	C205.005371,117.909225 205.088943,123.071785 204.973587,128.229813 
	C204.846298,133.921799 201.973938,136.873779 196.325623,136.964752 
	C188.503571,137.090775 180.676880,137.078033 172.854309,136.970306 
	C167.477310,136.896271 164.380432,134.103653 164.151917,128.720551 
	C163.876801,122.240158 163.874863,115.730179 164.151581,109.249954 
	C164.379700,103.907448 167.518921,101.116165 172.884476,101.026520 
	C179.375015,100.918068 185.868698,100.998283 192.835770,100.996857 
M173.847382,128.958298 
	C181.440994,128.958298 189.034592,128.958298 196.619995,128.958298 
	C196.619995,121.990723 196.619995,115.616371 196.619995,109.331970 
	C188.328613,109.331970 180.421753,109.331970 171.752167,109.331970 
	C172.159348,116.052238 172.544556,122.409554 173.847382,128.958298 
z"/>
<path fill="#2C2C3D" opacity="1.000000" stroke="none" 
	d="
M149.003174,118.999542 
	C149.000168,122.487793 149.088531,125.486961 148.974152,128.478378 
	C148.767960,133.870743 145.929443,136.855484 140.579453,136.954514 
	C132.593689,137.102371 124.601646,137.089767 116.615280,136.960388 
	C111.362961,136.875320 108.337463,133.928360 108.134071,128.485626 
	C107.898087,122.170364 107.891769,115.832466 108.132835,109.517647 
	C108.347610,103.891502 111.439934,101.090973 117.111626,101.022385 
	C124.599754,100.931839 132.090302,100.944916 139.578857,101.015259 
	C146.125275,101.076752 148.890259,103.918724 148.994614,110.518562 
	C149.036697,113.180740 149.002594,115.844124 149.003174,118.999542 
M140.999741,125.298729 
	C140.999741,120.021790 140.999741,114.744858 140.999741,109.393082 
	C132.444962,109.393082 124.424362,109.393082 116.401436,109.393082 
	C116.401436,116.036491 116.401436,122.282455 116.401436,128.987640 
	C123.972221,128.987640 131.256271,129.076691 138.531738,128.867386 
	C139.377213,128.843048 140.175156,127.166153 140.999741,125.298729 
z"/>
<path fill="#2C2C3D" opacity="1.000000" stroke="none" 
	d="
M108.054787,159.359497 
	C108.658455,151.382431 111.039314,149.037598 118.227776,149.004745 
	C125.387840,148.972031 132.548843,148.938873 139.708206,149.017212 
	C146.020752,149.086273 148.889709,151.919022 148.981964,158.156906 
	C149.068146,163.983704 149.057007,169.813492 148.985611,175.640701 
	C148.907974,181.976669 146.101685,184.901993 139.912308,184.977493 
	C132.253693,185.070938 124.591972,185.078033 116.933647,184.972641 
	C111.350372,184.895782 108.339539,181.989822 108.117989,176.297821 
	C107.904411,170.810883 108.060364,165.309570 108.054787,159.359497 
M122.612259,156.999451 
	C120.535286,156.999451 118.458313,156.999451 116.409119,156.999451 
	C116.409119,164.056015 116.409119,170.301422 116.409119,176.603104 
	C124.744133,176.603104 132.767929,176.603104 140.716217,176.603104 
	C140.716217,169.947525 140.716217,163.693436 140.716217,156.999451 
	C134.823044,156.999451 129.205597,156.999451 122.612259,156.999451 
z"/>
<path fill="#ACEC6F" opacity="1.000000" stroke="none" 
	d="
M90.000000,75.963409 
	C80.340187,75.962959 71.178902,75.866318 62.021214,76.005608 
	C57.895294,76.068367 55.835232,74.650055 55.892757,70.240395 
	C56.029602,59.750023 56.030319,49.255432 55.892151,38.765099 
	C55.834507,34.388802 57.817989,32.952362 61.976269,32.958813 
	C106.276375,33.027519 150.576691,33.034588 194.876740,32.951382 
	C199.412125,32.942863 201.123215,34.758934 201.050659,39.221592 
	C200.885529,49.377975 200.856003,59.541756 201.060471,69.696709 
	C201.158646,74.573036 199.020462,76.034752 194.422165,76.020668 
	C159.781723,75.914566 125.140785,75.963165 90.000000,75.963409 
z"/>
<path fill="#F26B36" opacity="1.000000" stroke="none" 
	d="
M172.238831,212.995956 
	C172.238968,194.022644 172.238968,175.548248 172.238968,156.617950 
	C180.444000,156.617950 188.319672,156.617950 196.604080,156.617950 
	C196.604080,180.393021 196.604080,204.263596 196.604080,228.488190 
	C188.706772,228.488190 180.821075,228.488190 172.238708,228.488190 
	C172.238708,223.374680 172.238708,218.434769 172.238831,212.995956 
z"/>
<path fill="#8FBCD2" opacity="1.000000" stroke="none" 
	d="
M85.997604,219.857544 
	C85.902046,221.776321 85.806534,223.212189 85.700302,224.809326 
	C77.456230,224.809326 69.550751,224.809326 61.323746,224.809326 
	C61.323746,218.271240 61.323746,211.909271 61.323746,205.273438 
	C69.373444,205.273438 77.279976,205.273438 85.997658,205.273438 
	C85.997658,209.905518 85.997658,214.640076 85.997604,219.857544 
z"/>
<path fill="#8FBCD2" opacity="1.000000" stroke="none" 
	d="
M85.979507,174.729675 
	C85.173798,175.797592 84.390053,176.890640 83.586578,176.905334 
	C76.301872,177.038589 69.013733,176.983429 61.365921,176.983429 
	C61.365921,170.359787 61.365921,163.996368 61.365921,157.314301 
	C69.411522,157.314301 77.436211,157.314301 85.992325,157.314301 
	C85.992325,163.062027 85.992325,168.658356 85.979507,174.729675 
z"/>
<path fill="#8FBCD2" opacity="1.000000" stroke="none" 
	d="
M85.997681,117.049065 
	C85.997681,121.153618 85.997681,124.772217 85.997681,128.691711 
	C77.577431,128.691711 69.554642,128.691711 61.265839,128.691711 
	C61.265839,122.274292 61.265839,116.029572 61.265839,109.392075 
	C69.245911,109.392075 77.271675,109.392075 85.997681,109.392075 
	C85.997681,111.725960 85.997681,114.144539 85.997681,117.049065 
z"/>
<path fill="#8EBBD1" opacity="1.000000" stroke="none" 
	d="
M140.982147,207.269165 
	C140.995102,213.227936 140.995102,218.711105 140.995102,224.596863 
	C132.779343,224.596863 124.753578,224.596863 116.412743,224.596863 
	C116.412743,218.307236 116.412743,212.061371 116.412743,205.161621 
	C124.268707,205.161621 132.168991,205.143341 140.068115,205.230530 
	C140.374191,205.233902 140.669083,206.249573 140.982147,207.269165 
z"/>
<path fill="#8EBBD1" opacity="1.000000" stroke="none" 
	d="
M173.388565,128.862579 
	C172.544556,122.409554 172.159348,116.052238 171.752167,109.331970 
	C180.421753,109.331970 188.328613,109.331970 196.619995,109.331970 
	C196.619995,115.616371 196.619995,121.990723 196.619995,128.958298 
	C189.034592,128.958298 181.440994,128.958298 173.388565,128.862579 
z"/>
<path fill="#8EBBD1" opacity="1.000000" stroke="none" 
	d="
M140.997437,125.777069 
	C140.175156,127.166153 139.377213,128.843048 138.531738,128.867386 
	C131.256271,129.076691 123.972221,128.987640 116.401436,128.987640 
	C116.401436,122.282455 116.401436,116.036491 116.401436,109.393082 
	C124.424362,109.393082 132.444962,109.393082 140.999741,109.393082 
	C140.999741,114.744858 140.999741,120.021790 140.997437,125.777069 
z"/>
<path fill="#8EBBD1" opacity="1.000000" stroke="none" 
	d="
M123.100197,156.999451 
	C129.205597,156.999451 134.823044,156.999451 140.716217,156.999451 
	C140.716217,163.693436 140.716217,169.947525 140.716217,176.603104 
	C132.767929,176.603104 124.744133,176.603104 116.409119,176.603104 
	C116.409119,170.301422 116.409119,164.056015 116.409119,156.999451 
	C118.458313,156.999451 120.535286,156.999451 123.100197,156.999451 
z"/>
</svg>