<svg version="1.1" id="Layer_1" xmlns="http://www.w3.org/2000/svg" xmlns:xlink="http://www.w3.org/1999/xlink" x="0px" y="0px"
	 width="100%" viewBox="0 0 512 512" enable-background="new 0 0 512 512" xml:space="preserve">
<path fill="#FFFFFF" opacity="1.000000" stroke="none" 
	d="
M1.000000,190.000000 
	C1.000000,126.666664 1.000000,63.833332 1.000000,1.000000 
	C171.666672,1.000000 342.333344,1.000000 513.000000,1.000000 
	C513.000000,171.666672 513.000000,342.333344 513.000000,513.000000 
	C342.333344,513.000000 171.666672,513.000000 1.000000,513.000000 
	C1.000000,405.500000 1.000000,298.000000 1.000000,190.000000 
M257.200531,41.023983 
	C256.137604,41.071190 255.074661,41.118401 253.082336,41.025337 
	C236.135681,41.016682 219.188995,40.984039 202.242371,41.004757 
	C173.835373,41.039482 145.428406,41.108223 116.087616,41.011082 
	C92.152039,41.011082 68.216469,41.011082 44.238533,41.011082 
	C44.238533,181.900589 44.238533,322.292999 44.238533,462.776581 
	C184.536896,462.776581 324.596008,462.776581 465.327759,462.776581 
	C465.327759,322.099731 465.327759,181.647018 465.327759,41.162453 
	C440.926849,41.162453 416.452850,41.162453 391.053986,41.019852 
	C376.267792,41.013000 361.481537,40.984089 346.695374,41.003956 
	C317.126404,41.043690 287.557434,41.110146 257.200531,41.023983 
z"/>
<path fill="#FA980B" opacity="1.000000" stroke="none" 
	d="
M117.021416,41.162643 
	C145.428406,41.108223 173.835373,41.039482 202.242371,41.004757 
	C219.188995,40.984039 236.135681,41.016682 253.543396,41.553139 
	C254.004456,110.945137 254.004456,179.809326 254.004456,249.000000 
	C251.076309,249.000000 249.090714,249.000000 247.105118,249.000000 
	C182.142319,249.000000 117.179474,248.978470 52.216896,249.101242 
	C50.212410,249.105026 46.775326,247.132080 46.408615,251.235077 
	C46.371590,251.649368 50.136600,252.922028 52.138409,252.924835 
	C117.101082,253.015991 182.063904,253.000000 247.026703,253.000000 
	C249.140152,253.000000 251.253601,253.000000 253.954697,253.000000 
	C253.954697,322.697815 253.954697,391.768829 253.493439,460.908691 
	C210.869629,460.983398 168.707047,461.010162 126.544571,460.954529 
	C123.245247,460.950165 119.929855,460.491852 116.650307,460.038971 
	C76.454582,454.488312 44.569084,417.280609 44.837746,376.084961 
	C45.384403,292.263245 44.985989,208.435410 45.045094,124.610153 
	C45.048229,120.160706 45.299877,115.643494 46.082493,111.273643 
	C50.892231,84.417725 65.289986,64.073029 89.235550,51.215347 
	C97.821335,46.605175 107.721268,44.442413 117.021416,41.162643 
M151.093521,368.907532 
	C151.093521,368.907532 151.113480,368.798737 151.265854,369.338318 
	C151.577896,369.520996 151.889938,369.703674 152.093277,369.907684 
	C152.093277,369.907684 152.113235,369.798737 152.265778,370.338226 
	C152.577728,370.521057 152.889694,370.703857 153.092880,370.907928 
	C153.092880,370.907928 153.112900,370.798920 153.265610,371.338287 
	C153.577499,371.521240 153.889374,371.704163 154.092560,371.908264 
	C154.092560,371.908264 154.112503,371.799316 154.265472,372.338562 
	C154.577286,372.521545 154.889099,372.704529 155.092255,372.908508 
	C155.092255,372.908508 155.112167,372.799683 155.265366,373.338776 
	C155.577133,373.521698 155.888901,373.704651 156.092117,373.908661 
	C156.092117,373.908661 156.111938,373.799866 156.265305,374.338837 
	C156.577057,374.521790 156.888809,374.704773 157.091995,374.908691 
	C157.091995,374.908691 157.111877,374.799927 157.265289,375.338898 
	C157.577042,375.521820 157.888794,375.704773 158.091980,375.908691 
	C158.091980,375.908691 158.111862,375.799957 158.265320,376.338928 
	C158.577057,376.521881 158.888779,376.704803 159.091980,376.908722 
	C159.091980,376.908722 159.111847,376.799957 159.265274,377.338898 
	C159.577011,377.521881 159.888748,377.704834 160.091934,377.908783 
	C160.091934,377.908783 160.111771,377.800018 160.265259,378.338928 
	C160.576965,378.521912 160.888672,378.704895 161.091873,378.908875 
	C161.091873,378.908875 161.111664,378.800110 161.265198,379.338989 
	C161.576889,379.522003 161.888565,379.705048 162.091736,379.909027 
	C162.091736,379.909027 162.111481,379.800262 162.265137,380.339081 
	C162.576782,380.522156 162.888443,380.705231 163.091507,380.909302 
	C163.091507,380.909302 163.111221,380.800476 163.265091,381.339233 
	C163.576736,381.522308 163.888367,381.705383 164.091370,381.909363 
	C164.091370,381.909363 164.111099,381.800507 164.265106,382.339264 
	C164.576843,382.522247 164.888596,382.705231 165.091537,382.909149 
	C165.091537,382.909149 165.111282,382.800110 165.265411,383.339081 
	C165.577408,383.521881 165.889404,383.704681 166.092178,383.908569 
	C166.092178,383.908569 166.112000,383.799133 166.265900,384.338531 
	C166.578186,384.521149 166.890488,384.703766 167.089691,384.908539 
	C167.089691,384.908539 167.107941,384.794739 167.266037,385.421692 
	C168.188431,385.301575 169.110825,385.181427 170.005234,385.002106 
	C170.005234,385.002106 170.066330,385.025574 170.490967,384.822998 
	C170.755981,384.631805 170.934189,384.379303 171.004349,384.004211 
	C171.004349,384.004211 171.065750,384.025360 171.490646,383.822937 
	C171.755844,383.631744 171.934082,383.379211 172.004242,383.004120 
	C172.004242,383.004120 172.065460,383.025238 172.490524,382.822968 
	C172.755783,382.631805 172.934052,382.379242 173.004227,382.004089 
	C173.004227,382.004089 173.065399,382.025146 173.490479,381.822937 
	C173.755798,381.631805 173.934067,381.379242 174.004211,381.004059 
	C174.004211,381.004059 174.065399,381.025116 174.490479,380.822906 
	C174.755783,380.631805 174.934067,380.379272 175.004227,380.004089 
	C175.004227,380.004089 175.065399,380.025146 175.490494,379.822937 
	C175.755753,379.631775 175.934052,379.379211 176.004211,379.004089 
	C176.004211,379.004089 176.065430,379.025238 176.490494,378.823029 
	C176.755692,378.631836 176.934052,378.379303 177.004333,378.004120 
	C177.004333,378.004120 177.065613,378.025391 177.490494,377.822998 
	C177.755615,377.631805 177.934082,377.379364 178.001114,377.005188 
	C178.001114,377.005188 178.059341,377.034790 178.512085,377.018066 
	C178.708237,376.679901 178.904388,376.341766 179.294418,375.258514 
	C178.420807,373.984711 177.701431,372.563324 176.647522,371.462067 
	C171.443344,366.024048 166.150650,360.670776 160.952164,354.473938 
	C160.925491,353.930481 160.898819,353.386993 160.911621,352.932434 
	C160.911621,352.932434 160.815887,352.915344 161.348145,352.743408 
	C161.537109,352.434143 161.726074,352.124908 161.930939,351.930359 
	C161.930939,351.930359 161.816086,351.915344 162.348251,351.743256 
	C162.537094,351.433990 162.725952,351.124725 162.930756,350.930176 
	C162.930756,350.930176 162.815918,350.915131 163.348129,350.743134 
	C163.536942,350.433777 163.725754,350.124451 163.930588,349.930023 
	C163.930588,349.930023 163.815582,349.914948 164.347977,349.742981 
	C164.536743,349.433563 164.725510,349.124115 164.930405,348.929810 
	C164.930405,348.929810 164.815155,348.914703 165.347748,348.742950 
	C165.536530,348.433441 165.725311,348.123932 165.930145,347.929596 
	C165.930145,347.929596 165.814865,347.914459 166.347610,347.742920 
	C166.536392,347.433380 166.725189,347.123810 166.930054,346.929504 
	C166.930054,346.929504 166.814667,346.914337 167.347473,346.742828 
	C167.536301,346.433258 167.725113,346.123688 167.930038,345.929474 
	C167.930038,345.929474 167.814575,345.914276 168.347427,345.742828 
	C168.536255,345.433258 168.725082,345.123657 168.930023,344.929443 
	C168.930023,344.929443 168.814560,344.914246 169.347443,344.742828 
	C169.536240,344.433197 169.725037,344.123596 169.930008,343.929382 
	C169.930008,343.929382 169.814468,343.914215 170.347412,343.742798 
	C170.536179,343.433167 170.724945,343.123535 170.929840,342.929291 
	C170.929840,342.929291 170.814270,342.914062 171.347321,342.742767 
	C171.536011,342.433014 171.724701,342.123260 171.929657,341.929016 
	C171.929657,341.929016 171.813980,341.913818 172.347137,341.742584 
	C172.535751,341.432739 172.724365,341.122925 172.929291,340.928680 
	C172.929291,340.928680 172.813538,340.913391 173.346924,340.742432 
	C173.535492,340.432526 173.724060,340.122589 173.928955,339.928406 
	C173.928955,339.928406 173.813095,339.912933 174.346725,339.742279 
	C174.535263,339.432281 174.723801,339.122284 174.928802,338.928131 
	C174.928802,338.928131 174.812790,338.912720 175.346527,338.742157 
	C175.535049,338.432098 175.723587,338.122070 175.928665,337.928009 
	C175.928665,337.928009 175.812531,337.912567 176.346436,337.742096 
	C176.534958,337.431915 176.723465,337.121765 176.928604,336.927887 
	C176.928604,336.927887 176.812134,336.912506 177.346191,336.741882 
	C177.534714,336.431580 177.723236,336.121246 177.928604,335.927704 
	C177.928604,335.927704 177.811600,335.912476 178.346405,335.740967 
	C178.534439,335.429626 178.722473,335.118286 178.900543,334.914764 
	C178.900543,334.914764 178.803162,334.867432 179.166626,334.869293 
	C179.244736,334.603394 179.322845,334.337494 179.470856,333.322235 
	C176.001251,329.590363 172.531631,325.858459 168.220215,321.221161 
	C161.033463,328.490479 154.317413,335.283691 146.883789,342.802734 
	C140.380676,336.026215 133.864258,329.235809 127.993141,323.117859 
	C124.059784,326.699860 120.319756,330.105774 115.787193,334.233429 
	C122.686531,340.854248 129.484985,347.378204 136.640869,354.245178 
	C130.692032,360.153381 124.879387,365.812988 119.231697,371.632690 
	C118.125656,372.772400 117.658440,374.532043 116.614075,376.323853 
	C117.055283,376.561401 117.496490,376.798981 117.998230,377.006653 
	C117.998230,377.006653 117.973206,377.069366 118.176170,377.492493 
	C118.366920,377.756592 118.618561,377.934662 118.994522,378.005707 
	C118.994522,378.005707 118.973465,378.069092 119.176125,378.492401 
	C119.366837,378.756622 119.618530,378.934662 119.994522,379.005646 
	C119.994522,379.005646 119.973663,379.068970 120.176132,379.492371 
	C120.366821,379.756622 120.618515,379.934631 120.994545,380.005615 
	C120.994545,380.005615 120.973740,380.068939 121.176125,380.492371 
	C121.366821,380.756622 121.618530,380.934631 121.994576,381.005615 
	C121.994576,381.005615 121.973747,381.068939 122.176109,381.492340 
	C122.366791,381.756622 122.618492,381.934631 122.994537,382.005615 
	C122.994537,382.005615 122.973732,382.068939 123.176102,382.492340 
	C123.366806,382.756561 123.618484,382.934601 123.994499,383.005646 
	C123.994499,383.005646 123.973663,383.069000 124.176064,383.492371 
	C124.366753,383.756531 124.618362,383.934631 124.994408,384.005737 
	C124.994408,384.005737 124.973488,384.069244 125.175941,384.492462 
	C125.366516,384.756592 125.617996,384.934723 125.993614,385.003326 
	C125.993614,385.003326 125.965446,385.064667 126.055069,385.679596 
	C127.000282,385.384338 127.945496,385.089050 128.909622,384.907379 
	C128.909622,384.907379 128.796585,384.885406 129.336853,384.733643 
	C129.519836,384.421478 129.702835,384.109283 129.907181,383.906403 
	C129.907181,383.906403 129.797699,383.886169 130.337570,383.733978 
	C130.520477,383.421906 130.703384,383.109833 130.907593,382.906769 
	C130.907593,382.906769 130.798386,382.886719 131.338028,382.734131 
	C131.520782,382.422058 131.703537,382.109985 131.907547,381.906799 
	C131.907547,381.906799 131.798447,381.886719 132.338120,381.734131 
	C132.520767,381.422028 132.703430,381.109894 132.907455,380.906616 
	C132.907455,380.906616 132.798340,380.886597 133.338013,380.734070 
	C133.520691,380.421936 133.703354,380.109833 133.907364,379.906586 
	C133.907364,379.906586 133.798233,379.886505 134.337967,379.734039 
	C134.520645,379.421906 134.703308,379.109772 134.907318,378.906555 
	C134.907318,378.906555 134.798172,378.886505 135.337936,378.734039 
	C135.520599,378.421875 135.703262,378.109711 135.907272,377.906525 
	C135.907272,377.906525 135.798065,377.886414 136.337845,377.733978 
	C136.520477,377.421783 136.703110,377.109589 136.907120,376.906403 
	C136.907120,376.906403 136.797897,376.886200 137.337830,376.733856 
	C137.520401,376.421600 137.702972,376.109314 137.906891,375.906189 
	C137.906891,375.906189 137.797562,375.885834 138.337646,375.733765 
	C138.520142,375.421387 138.702637,375.109009 138.906631,374.905853 
	C138.906631,374.905853 138.797180,374.885559 139.337418,374.733643 
	C139.519897,374.421173 139.702377,374.108704 139.906448,373.905609 
	C139.906448,373.905609 139.796829,373.885376 140.337219,373.733582 
	C140.519699,373.421051 140.702194,373.108551 140.906281,372.905426 
	C140.906281,372.905426 140.796646,372.885162 141.337112,372.733490 
	C141.519623,372.421021 141.702133,372.108521 141.906235,371.905457 
	C141.906235,371.905457 141.796570,371.885101 142.337067,371.733521 
	C142.519577,371.421021 142.702087,371.108521 142.906235,370.905457 
	C142.906235,370.905457 142.796555,370.885101 143.337036,370.733490 
	C143.519562,370.421021 143.702087,370.108521 143.906235,369.905457 
	C143.906235,369.905457 143.796600,369.885071 144.337082,369.733612 
	C144.519592,369.421173 144.702087,369.108734 144.906113,368.905396 
	C144.906113,368.905396 144.796768,368.884918 145.337219,368.733826 
	C145.519653,368.421448 145.702087,368.109070 145.899475,367.912842 
	C145.899475,367.912842 145.812363,367.834564 146.683853,367.941315 
	C147.851349,367.906281 149.018860,367.871216 150.100540,367.914215 
	C150.100540,367.914215 150.113693,367.798950 150.265839,368.338501 
	C150.577896,368.520996 150.889969,368.703522 151.093521,368.907532 
M157.728912,158.979050 
	C165.955444,158.986801 174.182404,159.035706 182.407883,158.946564 
	C183.361343,158.936234 184.306503,158.160049 185.737701,156.949692 
	C185.737701,152.009537 185.737701,147.069366 185.737701,141.535889 
	C175.968491,141.535889 166.425247,141.535889 156.293396,141.535889 
	C156.293396,131.420593 156.293396,121.887245 156.293396,112.311203 
	C150.773087,112.311203 145.866364,112.311203 140.381317,112.311203 
	C140.381317,122.164940 140.381317,131.713318 140.381317,141.656769 
	C130.381287,141.656769 120.958443,141.656769 110.722412,141.656769 
	C111.082245,147.309296 111.414207,152.524139 111.627701,158.303757 
	C121.165802,158.517395 130.703903,158.731049 140.552353,159.702896 
	C140.552353,169.088379 140.552353,178.473862 140.552353,187.991730 
	C144.876129,187.991730 148.047958,187.817566 151.192490,188.036057 
	C155.074799,188.305801 156.497757,186.815186 156.437180,182.864105 
	C156.315002,174.894485 156.625793,166.918259 157.728912,158.979050 
z"/>
<path fill="#FA980B" opacity="1.000000" stroke="none" 
	d="
M257.988464,41.165569 
	C287.557434,41.110146 317.126404,41.043690 346.695374,41.003956 
	C361.481537,40.984089 376.267792,41.013000 391.731781,41.423634 
	C393.735046,41.905952 395.108337,41.786171 396.378967,42.092285 
	C422.038574,48.274124 441.691376,62.481159 454.307312,85.879684 
	C460.905640,98.117477 464.146210,111.164764 464.064941,125.189896 
	C463.825897,166.443909 463.892700,207.699692 463.381897,248.969788 
	C394.719543,248.984802 326.515076,248.984802 257.988464,248.984802 
	C257.988464,179.083176 257.988464,110.124374 257.988464,41.165569 
M323.410095,158.202026 
	C324.329803,158.467072 325.249084,158.961761 326.169312,158.963562 
	C348.856598,159.007782 371.544128,159.025146 394.231140,158.932220 
	C395.473846,158.927124 396.712524,157.925720 397.979431,156.529373 
	C397.979431,151.627487 397.979431,146.725601 397.979431,141.749817 
	C372.670776,141.749817 348.017059,141.749817 323.046509,141.749817 
	C323.046509,147.148834 323.046509,152.268951 323.410095,158.202026 
z"/>
<path fill="#000000" opacity="1.000000" stroke="none" 
	d="
M463.839783,248.954773 
	C463.892700,207.699692 463.825897,166.443909 464.064941,125.189896 
	C464.146210,111.164764 460.905640,98.117477 454.307312,85.879684 
	C441.691376,62.481159 422.038574,48.274124 396.378967,42.092285 
	C395.108337,41.786171 393.735046,41.905952 392.194214,41.494934 
	C416.452850,41.162453 440.926849,41.162453 465.327759,41.162453 
	C465.327759,181.647018 465.327759,322.099731 465.327759,462.776581 
	C324.596008,462.776581 184.536896,462.776581 44.238533,462.776581 
	C44.238533,322.292999 44.238533,181.900589 44.238533,41.011082 
	C68.216469,41.011082 92.152039,41.011082 116.554520,41.086861 
	C107.721268,44.442413 97.821335,46.605175 89.235550,51.215347 
	C65.289986,64.073029 50.892231,84.417725 46.082493,111.273643 
	C45.299877,115.643494 45.048229,120.160706 45.045094,124.610153 
	C44.985989,208.435410 45.384403,292.263245 44.837746,376.084961 
	C44.569084,417.280609 76.454582,454.488312 116.650307,460.038971 
	C119.929855,460.491852 123.245247,460.950165 126.544571,460.954529 
	C168.707047,461.010162 210.869629,460.983398 253.896347,460.972809 
	C255.844437,460.923035 256.928375,460.877991 258.476929,460.905457 
	C298.764252,460.982971 338.587494,460.860779 378.409363,461.038513 
	C404.418030,461.154572 425.865173,451.240143 443.056854,432.115631 
	C452.578461,421.523529 459.314209,409.263885 461.964172,394.620026 
	C462.723022,391.212158 463.826691,388.182434 463.851257,385.143982 
	C463.989227,368.094879 463.867065,351.043610 463.905884,333.529846 
	C463.932556,306.380035 463.887054,279.693512 463.905090,252.604706 
	C463.925690,251.119858 463.882751,250.037308 463.839783,248.954773 
z"/>
<path fill="#C57809" opacity="1.000000" stroke="none" 
	d="
M463.381897,248.969788 
	C463.882751,250.037308 463.925690,251.119858 463.447723,252.599213 
	C394.719727,252.996017 326.512634,252.996017 258.165527,252.996017 
	C258.165527,280.424438 258.165527,307.207672 258.093140,334.455322 
	C258.069244,354.944580 258.117737,374.969452 258.095520,395.458496 
	C258.020660,417.559479 258.016479,439.196228 258.012299,460.832977 
	C256.928375,460.877991 255.844437,460.923035 254.357605,460.903961 
	C253.954697,391.768829 253.954697,322.697815 253.954697,253.000000 
	C251.253601,253.000000 249.140152,253.000000 247.026703,253.000000 
	C182.063904,253.000000 117.101082,253.015991 52.138409,252.924835 
	C50.136600,252.922028 46.371590,251.649368 46.408615,251.235077 
	C46.775326,247.132080 50.212410,249.105026 52.216896,249.101242 
	C117.179474,248.978470 182.142319,249.000000 247.105118,249.000000 
	C249.090714,249.000000 251.076309,249.000000 254.004456,249.000000 
	C254.004456,179.809326 254.004456,110.945137 254.008087,41.623276 
	C255.074661,41.118401 256.137604,41.071190 257.594482,41.094776 
	C257.988464,110.124374 257.988464,179.083176 257.988464,248.984802 
	C326.515076,248.984802 394.719543,248.984802 463.381897,248.969788 
z"/>
<path fill="#FEFCF9" opacity="1.000000" stroke="none" 
	d="
M116.896584,376.005768 
	C117.658440,374.532043 118.125656,372.772400 119.231697,371.632690 
	C124.879387,365.812988 130.692032,360.153381 136.640869,354.245178 
	C129.484985,347.378204 122.686531,340.854248 115.787193,334.233429 
	C120.319756,330.105774 124.059784,326.699860 127.993141,323.117859 
	C133.864258,329.235809 140.380676,336.026215 146.883789,342.802734 
	C154.317413,335.283691 161.033463,328.490479 168.220215,321.221161 
	C172.531631,325.858459 176.001251,329.590363 179.222198,333.847717 
	C178.916763,334.537964 178.859970,334.702698 178.803162,334.867432 
	C178.803162,334.867432 178.900543,334.914764 178.633575,334.940918 
	C178.181625,335.282196 177.996628,335.597351 177.811615,335.912476 
	C177.811600,335.912476 177.928604,335.927704 177.647797,335.947662 
	C177.182022,336.282593 176.997086,336.597534 176.812134,336.912506 
	C176.812134,336.912506 176.928604,336.927887 176.647827,336.947815 
	C176.182220,337.282654 175.997360,337.597595 175.812531,337.912567 
	C175.812531,337.912567 175.928665,337.928009 175.647919,337.947937 
	C175.182373,338.282806 174.997589,338.597748 174.812790,338.912720 
	C174.812790,338.912720 174.928802,338.928131 174.648087,338.948090 
	C174.182617,339.283020 173.997864,339.597961 173.813095,339.912933 
	C173.813095,339.912933 173.928955,339.928406 173.648315,339.948425 
	C173.182953,340.283417 172.998245,340.598419 172.813538,340.913391 
	C172.813538,340.913391 172.929291,340.928680 172.648651,340.948792 
	C172.183350,341.283875 171.998657,341.598846 171.813965,341.913818 
	C171.813980,341.913818 171.929657,341.929016 171.649048,341.949127 
	C171.183701,342.284180 170.998978,342.599121 170.814270,342.914062 
	C170.814270,342.914062 170.929840,342.929291 170.649261,342.949341 
	C170.183960,343.284363 169.999207,343.599274 169.814453,343.914215 
	C169.814468,343.914215 169.930008,343.929382 169.649429,343.949402 
	C169.184082,344.284393 168.999313,344.599304 168.814560,344.914246 
	C168.814560,344.914246 168.930023,344.929443 168.649445,344.949463 
	C168.184113,345.284424 167.999344,345.599365 167.814575,345.914276 
	C167.814575,345.914276 167.930038,345.929474 167.649506,345.949493 
	C167.184204,346.284454 166.999451,346.599396 166.814667,346.914337 
	C166.814667,346.914337 166.930054,346.929504 166.649536,346.949585 
	C166.184296,347.284576 165.999573,347.599518 165.814865,347.914459 
	C165.814865,347.914459 165.930145,347.929596 165.649658,347.949707 
	C165.184494,348.284821 164.999832,348.599762 164.815155,348.914703 
	C164.815155,348.914703 164.930405,348.929810 164.649902,348.949982 
	C164.184814,349.285095 164.000198,349.600006 163.815582,349.914948 
	C163.815582,349.914948 163.930588,349.930023 163.650162,349.950256 
	C163.185120,350.285370 163.000519,350.600250 162.815918,350.915131 
	C162.815918,350.915131 162.930756,350.930176 162.650375,350.950470 
	C162.185364,351.285614 162.000732,351.600494 161.816086,351.915344 
	C161.816086,351.915344 161.930939,351.930359 161.650528,351.950623 
	C161.185379,352.285675 161.000626,352.600494 160.815887,352.915344 
	C160.815887,352.915344 160.911621,352.932434 160.581726,353.026031 
	C160.464264,353.842285 160.676712,354.564941 160.889175,355.287598 
	C166.150650,360.670776 171.443344,366.024048 176.647522,371.462067 
	C177.701431,372.563324 178.420807,373.984711 178.954071,375.723267 
	C178.428925,376.470276 178.244141,376.752533 178.059357,377.034790 
	C178.059341,377.034790 178.001114,377.005188 177.783325,377.113373 
	C177.273743,377.411652 177.107101,377.679596 177.065613,378.025391 
	C177.065613,378.025391 177.004333,378.004120 176.784821,378.112762 
	C176.273636,378.411591 176.107010,378.679535 176.065430,379.025238 
	C176.065430,379.025238 176.004211,379.004089 175.784698,379.112732 
	C175.273605,379.411530 175.107010,379.679474 175.065399,380.025146 
	C175.065399,380.025146 175.004227,380.004089 174.784683,380.112732 
	C174.273590,380.411560 174.107010,380.679474 174.065399,381.025116 
	C174.065399,381.025116 174.004211,381.004059 173.784668,381.112671 
	C173.273605,381.411591 173.107040,381.679535 173.065399,382.025146 
	C173.065399,382.025146 173.004227,382.004089 172.784668,382.112701 
	C172.273590,382.411621 172.107040,382.679596 172.065460,383.025238 
	C172.065460,383.025238 172.004242,383.004120 171.784729,383.112762 
	C171.273743,383.411713 171.107239,383.679688 171.065750,384.025360 
	C171.065750,384.025360 171.004349,384.004211 170.784897,384.112885 
	C170.273956,384.411896 170.107574,384.679901 170.066330,385.025574 
	C170.066330,385.025574 170.005234,385.002106 169.641922,385.128540 
	C168.555054,385.101532 167.831497,384.948151 167.107941,384.794739 
	C167.107941,384.794739 167.089691,384.908539 167.064667,384.630890 
	C166.730423,384.168549 166.421219,383.983826 166.112000,383.799133 
	C166.112000,383.799133 166.092178,383.908569 166.065399,383.631439 
	C165.729492,383.169586 165.420395,382.984833 165.111282,382.800110 
	C165.111282,382.800110 165.091537,382.909149 165.064789,382.632019 
	C164.729050,382.170135 164.420074,381.985321 164.111099,381.800507 
	C164.111099,381.800507 164.091370,381.909363 164.064713,381.632202 
	C163.729111,381.170197 163.420166,380.985321 163.111221,380.800476 
	C163.111221,380.800476 163.091507,380.909302 163.064911,380.632050 
	C162.729355,380.169952 162.420410,379.985107 162.111481,379.800262 
	C162.111481,379.800262 162.091736,379.909027 162.065186,379.631744 
	C161.729660,379.169678 161.420670,378.984894 161.111664,378.800110 
	C161.111664,378.800110 161.091873,378.908875 161.065399,378.631531 
	C160.729858,378.169464 160.420807,377.984741 160.111771,377.800018 
	C160.111771,377.800018 160.091934,377.908783 160.065506,377.631409 
	C159.729996,377.169373 159.420929,376.984650 159.111847,376.799957 
	C159.111847,376.799957 159.091980,376.908722 159.065567,376.631348 
	C158.730057,376.169342 158.420959,375.984650 158.111862,375.799957 
	C158.111862,375.799957 158.091980,375.908691 158.065582,375.631348 
	C157.730072,375.169312 157.420975,374.984619 157.111877,374.799927 
	C157.111877,374.799927 157.091995,374.908691 157.065613,374.631348 
	C156.730118,374.169281 156.421036,373.984558 156.111938,373.799866 
	C156.111938,373.799866 156.092117,373.908661 156.065735,373.631226 
	C155.730286,373.169098 155.421234,372.984375 155.112167,372.799683 
	C155.112167,372.799683 155.092255,372.908508 155.065979,372.631073 
	C154.730637,372.168884 154.421570,371.984100 154.112503,371.799316 
	C154.112503,371.799316 154.092560,371.908264 154.066345,371.630737 
	C153.731049,371.168427 153.421967,370.983673 153.112900,370.798920 
	C153.112900,370.798920 153.092880,370.907928 153.066742,370.630310 
	C152.731491,370.168060 152.422363,369.983398 152.113235,369.798737 
	C152.113235,369.798737 152.093277,369.907684 152.067184,369.630005 
	C151.731888,369.167786 151.422684,368.983276 151.113480,368.798737 
	C151.113480,368.798737 151.093521,368.907532 151.067505,368.629700 
	C150.732224,368.167572 150.422958,367.983246 150.113708,367.798950 
	C150.113693,367.798950 150.100540,367.914215 150.010223,367.556305 
	C148.178726,365.008606 146.889877,365.739288 145.812363,367.834564 
	C145.812363,367.834564 145.899475,367.912842 145.624847,367.934906 
	C145.165726,368.266266 144.981247,368.575592 144.796753,368.884918 
	C144.796768,368.884918 144.906113,368.905396 144.628265,368.931274 
	C144.165817,369.266449 143.981201,369.575745 143.796600,369.885071 
	C143.796600,369.885071 143.906235,369.905457 143.628387,369.931335 
	C143.165863,370.266510 142.981201,370.575806 142.796539,370.885101 
	C142.796555,370.885101 142.906235,370.905457 142.628387,370.931366 
	C142.165894,371.266541 141.981232,371.575836 141.796570,371.885101 
	C141.796570,371.885101 141.906235,371.905457 141.628418,371.931335 
	C141.165955,372.266541 140.981293,372.575867 140.796646,372.885162 
	C140.796646,372.885162 140.906281,372.905426 140.628479,372.931396 
	C140.166046,373.266724 139.981430,373.576050 139.796814,373.885376 
	C139.796829,373.885376 139.906448,373.905609 139.628662,373.931641 
	C139.166321,374.266937 138.981750,374.576263 138.797180,374.885559 
	C138.797180,374.885559 138.906631,374.905853 138.628906,374.931885 
	C138.166641,375.267212 137.982101,375.576508 137.797562,375.885834 
	C137.797562,375.885834 137.906891,375.906189 137.629211,375.932220 
	C137.166977,376.267548 136.982422,376.576874 136.797882,376.886200 
	C136.797897,376.886200 136.907120,376.906403 136.629425,376.932495 
	C136.167175,377.267853 135.982620,377.577118 135.798065,377.886414 
	C135.798065,377.886414 135.907272,377.906525 135.629608,377.932617 
	C135.167343,378.267975 134.982758,378.577240 134.798187,378.886505 
	C134.798172,378.886505 134.907318,378.906555 134.629639,378.932648 
	C134.167389,379.268005 133.982803,379.577240 133.798233,379.886505 
	C133.798233,379.886505 133.907364,379.906586 133.629700,379.932709 
	C133.167496,380.268097 132.982925,380.577362 132.798340,380.886597 
	C132.798340,380.886597 132.907455,380.906616 132.629791,380.932770 
	C132.167557,381.268188 131.983002,381.577454 131.798447,381.886719 
	C131.798447,381.886719 131.907547,381.906799 131.629944,381.932922 
	C131.167679,382.268280 130.983032,382.577515 130.798386,382.886719 
	C130.798386,382.886719 130.907593,382.906769 130.629974,382.932861 
	C130.167450,383.268005 129.982559,383.577087 129.797699,383.886169 
	C129.797699,383.886169 129.907181,383.906403 129.629517,383.932404 
	C129.166763,384.267395 128.981674,384.576416 128.796585,384.885406 
	C128.796585,384.885406 128.909622,384.907379 128.531647,384.976440 
	C127.424255,385.051880 126.694847,385.058258 125.965446,385.064667 
	C125.965446,385.064667 125.993614,385.003326 125.884300,384.785583 
	C125.585449,384.276855 125.318283,384.110657 124.973488,384.069244 
	C124.973488,384.069244 124.994408,384.005737 124.884850,383.786682 
	C124.585663,383.276672 124.318451,383.110474 123.973663,383.069000 
	C123.973663,383.069000 123.994499,383.005646 123.884964,382.786560 
	C123.585709,382.276672 123.318481,382.110474 122.973732,382.068939 
	C122.973732,382.068939 122.994537,382.005615 122.884995,381.786499 
	C122.585724,381.276581 122.318489,381.110413 121.973747,381.068939 
	C121.973747,381.068939 121.994576,381.005615 121.885025,380.786499 
	C121.585716,380.276611 121.318474,380.110474 120.973740,380.068939 
	C120.973740,380.068939 120.994545,380.005615 120.884995,379.786499 
	C120.585670,379.276611 120.318413,379.110474 119.973663,379.068970 
	C119.973663,379.068970 119.994522,379.005646 119.884964,378.786560 
	C119.585594,378.276642 119.318283,378.110535 118.973465,378.069092 
	C118.973465,378.069092 118.994522,378.005707 118.884933,377.786682 
	C118.585442,377.276794 118.318062,377.110718 117.973206,377.069366 
	C117.973206,377.069366 117.998230,377.006653 117.878418,376.777832 
	C117.471268,376.367920 117.183922,376.186859 116.896584,376.005768 
z"/>
<path fill="#FFFFFF" opacity="1.000000" stroke="none" 
	d="
M111.746170,157.738983 
	C111.414207,152.524139 111.082245,147.309296 110.722412,141.656769 
	C120.958443,141.656769 130.381287,141.656769 140.381317,141.656769 
	C140.381317,131.713318 140.381317,122.164940 140.381317,112.311203 
	C145.866364,112.311203 150.773087,112.311203 156.293396,112.311203 
	C156.293396,121.887245 156.293396,131.420593 156.293396,141.535889 
	C166.425247,141.535889 175.968491,141.535889 185.737701,141.535889 
	C185.737701,147.069366 185.737701,152.009537 185.025284,157.203217 
	C176.337341,157.425903 168.360931,157.328049 160.387268,157.435440 
	C159.170944,157.451813 157.967438,158.417908 156.757996,158.944748 
	C156.625793,166.918259 156.315002,174.894485 156.437180,182.864105 
	C156.497757,186.815186 155.074799,188.305801 151.192490,188.036057 
	C148.047958,187.817566 144.876129,187.991730 140.552353,187.991730 
	C140.552353,178.473862 140.552353,169.088379 140.299744,158.912842 
	C130.613464,157.994873 121.179817,157.866928 111.746170,157.738983 
z"/>
<path fill="#E1890A" opacity="1.000000" stroke="none" 
	d="
M111.686935,158.021362 
	C121.179817,157.866928 130.613464,157.994873 140.144562,158.533752 
	C130.703903,158.731049 121.165802,158.517395 111.686935,158.021362 
z"/>
<path fill="#E1890A" opacity="1.000000" stroke="none" 
	d="
M157.243454,158.961899 
	C157.967438,158.417908 159.170944,157.451813 160.387268,157.435440 
	C168.360931,157.328049 176.337341,157.425903 184.784180,157.597839 
	C184.306503,158.160049 183.361343,158.936234 182.407883,158.946564 
	C174.182404,159.035706 165.955444,158.986801 157.243454,158.961899 
z"/>
<path fill="#E4911A" opacity="1.000000" stroke="none" 
	d="
M146.248108,367.887939 
	C146.889877,365.739288 148.178726,365.008606 150.053131,367.517273 
	C149.018860,367.871216 147.851349,367.906281 146.248108,367.887939 
z"/>
<path fill="#E4911A" opacity="1.000000" stroke="none" 
	d="
M167.186981,385.108215 
	C167.831497,384.948151 168.555054,385.101532 169.655914,385.158112 
	C169.110825,385.181427 168.188431,385.301575 167.186981,385.108215 
z"/>
<path fill="#E4911A" opacity="1.000000" stroke="none" 
	d="
M126.010254,385.372131 
	C126.694847,385.058258 127.424255,385.051880 128.522186,384.919617 
	C127.945496,385.089050 127.000282,385.384338 126.010254,385.372131 
z"/>
<path fill="#E4911A" opacity="1.000000" stroke="none" 
	d="
M178.285721,377.026428 
	C178.244141,376.752533 178.428925,376.470276 178.857132,376.095825 
	C178.904388,376.341766 178.708237,376.679901 178.285721,377.026428 
z"/>
<path fill="#E4911A" opacity="1.000000" stroke="none" 
	d="
M116.755325,376.164795 
	C117.183922,376.186859 117.471268,376.367920 117.848160,376.792786 
	C117.496490,376.798981 117.055283,376.561401 116.755325,376.164795 
z"/>
<path fill="#E58D0D" opacity="1.000000" stroke="none" 
	d="
M160.920670,354.880768 
	C160.676712,354.564941 160.464264,353.842285 160.561981,352.981567 
	C160.898819,353.386993 160.925491,353.930481 160.920670,354.880768 
z"/>
<path fill="#E4911A" opacity="1.000000" stroke="none" 
	d="
M135.068054,378.810272 
	C134.982758,378.577240 135.167343,378.267975 135.618927,377.878113 
	C135.703262,378.109711 135.520599,378.421875 135.068054,378.810272 
z"/>
<path fill="#E4911A" opacity="1.000000" stroke="none" 
	d="
M133.068176,380.810333 
	C132.982925,380.577362 133.167496,380.268097 133.619034,379.878265 
	C133.703354,380.109833 133.520691,380.421936 133.068176,380.810333 
z"/>
<path fill="#E4911A" opacity="1.000000" stroke="none" 
	d="
M121.074936,380.280640 
	C121.318474,380.110474 121.585716,380.276611 121.853348,380.796875 
	C121.618530,380.934631 121.366821,380.756622 121.074936,380.280640 
z"/>
<path fill="#E4911A" opacity="1.000000" stroke="none" 
	d="
M175.277954,379.924042 
	C175.107010,379.679474 175.273605,379.411530 175.795303,379.143311 
	C175.934052,379.379211 175.755753,379.631775 175.277954,379.924042 
z"/>
<path fill="#E4911A" opacity="1.000000" stroke="none" 
	d="
M161.188431,379.069550 
	C161.420670,378.984894 161.729660,379.169678 162.119446,379.621277 
	C161.888565,379.705048 161.576889,379.522003 161.188431,379.069550 
z"/>
<path fill="#E4911A" opacity="1.000000" stroke="none" 
	d="
M134.068100,379.810272 
	C133.982803,379.577240 134.167389,379.268005 134.618973,378.878174 
	C134.703308,379.109772 134.520645,379.421906 134.068100,379.810272 
z"/>
<path fill="#E4911A" opacity="1.000000" stroke="none" 
	d="
M120.074898,379.280670 
	C120.318413,379.110474 120.585670,379.276611 120.853333,379.796875 
	C120.618515,379.934631 120.366821,379.756622 120.074898,379.280670 
z"/>
<path fill="#E4911A" opacity="1.000000" stroke="none" 
	d="
M176.277954,378.924133 
	C176.107010,378.679535 176.273636,378.411591 176.795441,378.143402 
	C176.934052,378.379303 176.755692,378.631836 176.277954,378.924133 
z"/>
<path fill="#E4911A" opacity="1.000000" stroke="none" 
	d="
M160.188507,378.069458 
	C160.420807,377.984741 160.729858,378.169464 161.119659,378.621033 
	C160.888672,378.704895 160.576965,378.521912 160.188507,378.069458 
z"/>
<path fill="#E4911A" opacity="1.000000" stroke="none" 
	d="
M162.188309,380.069672 
	C162.420410,379.985107 162.729355,380.169952 163.119202,380.621552 
	C162.888443,380.705231 162.576782,380.522156 162.188309,380.069672 
z"/>
<path fill="#E4911A" opacity="1.000000" stroke="none" 
	d="
M119.074799,378.280762 
	C119.318283,378.110535 119.585594,378.276642 119.853302,378.796997 
	C119.618530,378.934662 119.366837,378.756622 119.074799,378.280762 
z"/>
<path fill="#E4911A" opacity="1.000000" stroke="none" 
	d="
M177.278046,377.924194 
	C177.107101,377.679596 177.273743,377.411652 177.795700,377.143616 
	C177.934082,377.379364 177.755615,377.631805 177.278046,377.924194 
z"/>
<path fill="#E4911A" opacity="1.000000" stroke="none" 
	d="
M159.188568,377.069427 
	C159.420929,376.984650 159.729996,377.169373 160.119781,377.620911 
	C159.888748,377.704834 159.577011,377.521881 159.188568,377.069427 
z"/>
<path fill="#E4911A" opacity="1.000000" stroke="none" 
	d="
M136.067963,377.810181 
	C135.982620,377.577118 136.167175,377.267853 136.618744,376.877991 
	C136.703110,377.109589 136.520477,377.421783 136.067963,377.810181 
z"/>
<path fill="#E4911A" opacity="1.000000" stroke="none" 
	d="
M170.278656,384.924286 
	C170.107574,384.679901 170.273956,384.411896 170.795502,384.143555 
	C170.934189,384.379303 170.755981,384.631805 170.278656,384.924286 
z"/>
<path fill="#E4911A" opacity="1.000000" stroke="none" 
	d="
M118.074692,377.280945 
	C118.318062,377.110718 118.585442,377.276794 118.853226,377.797180 
	C118.618561,377.934662 118.366920,377.756592 118.074692,377.280945 
z"/>
<path fill="#E4911A" opacity="1.000000" stroke="none" 
	d="
M137.067856,376.810028 
	C136.982422,376.576874 137.166977,376.267548 137.618530,375.877655 
	C137.702972,376.109314 137.520401,376.421600 137.067856,376.810028 
z"/>
<path fill="#E4911A" opacity="1.000000" stroke="none" 
	d="
M125.074715,384.280853 
	C125.318283,384.110657 125.585449,384.276855 125.852684,384.797363 
	C125.617996,384.934723 125.366516,384.756592 125.074715,384.280853 
z"/>
<path fill="#E4911A" opacity="1.000000" stroke="none" 
	d="
M174.277939,380.924011 
	C174.107010,380.679474 174.273590,380.411560 174.795227,380.143311 
	C174.934067,380.379272 174.755783,380.631805 174.277939,380.924011 
z"/>
<path fill="#E4911A" opacity="1.000000" stroke="none" 
	d="
M122.074928,381.280640 
	C122.318489,381.110413 122.585724,381.276581 122.853333,381.796875 
	C122.618492,381.934631 122.366791,381.756622 122.074928,381.280640 
z"/>
<path fill="#E4911A" opacity="1.000000" stroke="none" 
	d="
M132.068283,381.810425 
	C131.983002,381.577454 132.167557,381.268188 132.619110,380.878357 
	C132.703430,381.109894 132.520767,381.422028 132.068283,381.810425 
z"/>
<path fill="#E4911A" opacity="1.000000" stroke="none" 
	d="
M166.188950,384.068848 
	C166.421219,383.983826 166.730423,384.168549 167.121201,384.619812 
	C166.890488,384.703766 166.578186,384.521149 166.188950,384.068848 
z"/>
<path fill="#E4911A" opacity="1.000000" stroke="none" 
	d="
M163.188156,381.069855 
	C163.420166,380.985321 163.729111,381.170197 164.119034,381.621765 
	C163.888367,381.705383 163.576736,381.522308 163.188156,381.069855 
z"/>
<path fill="#E4911A" opacity="1.000000" stroke="none" 
	d="
M129.066711,384.809509 
	C128.981674,384.576416 129.166763,384.267395 129.618851,383.877747 
	C129.702835,384.109283 129.519836,384.421478 129.066711,384.809509 
z"/>
<path fill="#E4911A" opacity="1.000000" stroke="none" 
	d="
M173.277939,381.924042 
	C173.107040,381.679535 173.273605,381.411591 173.795197,381.143280 
	C173.934067,381.379242 173.755798,381.631805 173.277939,381.924042 
z"/>
<path fill="#E4911A" opacity="1.000000" stroke="none" 
	d="
M123.074921,382.280640 
	C123.318481,382.110474 123.585709,382.276672 123.853287,382.796997 
	C123.618484,382.934601 123.366806,382.756561 123.074921,382.280640 
z"/>
<path fill="#E4911A" opacity="1.000000" stroke="none" 
	d="
M131.068207,382.810425 
	C130.983032,382.577515 131.167679,382.268280 131.619324,381.878479 
	C131.703537,382.109985 131.520782,382.422058 131.068207,382.810425 
z"/>
<path fill="#E4911A" opacity="1.000000" stroke="none" 
	d="
M164.188110,382.069885 
	C164.420074,381.985321 164.729050,382.170135 165.119186,382.621582 
	C164.888596,382.705231 164.576843,382.522247 164.188110,382.069885 
z"/>
<path fill="#E4911A" opacity="1.000000" stroke="none" 
	d="
M172.277985,382.924103 
	C172.107040,382.679596 172.273590,382.411621 172.795197,382.143280 
	C172.934052,382.379242 172.755783,382.631805 172.277985,382.924103 
z"/>
<path fill="#E4911A" opacity="1.000000" stroke="none" 
	d="
M124.074860,383.280701 
	C124.318451,383.110474 124.585663,383.276672 124.853104,383.797119 
	C124.618362,383.934631 124.366753,383.756531 124.074860,383.280701 
z"/>
<path fill="#E4911A" opacity="1.000000" stroke="none" 
	d="
M130.067627,383.810059 
	C129.982559,383.577087 130.167450,383.268005 130.619324,382.878357 
	C130.703384,383.109833 130.520477,383.421906 130.067627,383.810059 
z"/>
<path fill="#E4911A" opacity="1.000000" stroke="none" 
	d="
M165.188354,383.069580 
	C165.420395,382.984833 165.729492,383.169586 166.119995,383.620911 
	C165.889404,383.704681 165.577408,383.521881 165.188354,383.069580 
z"/>
<path fill="#E4911A" opacity="1.000000" stroke="none" 
	d="
M171.278198,383.924133 
	C171.107239,383.679688 171.273743,383.411713 171.795319,383.143372 
	C171.934082,383.379211 171.755844,383.631744 171.278198,383.924133 
z"/>
<path fill="#E58D0D" opacity="1.000000" stroke="none" 
	d="
M168.080994,345.828552 
	C167.999344,345.599365 168.184113,345.284424 168.641388,344.891785 
	C168.725082,345.123657 168.536255,345.433258 168.080994,345.828552 
z"/>
<path fill="#E58D0D" opacity="1.000000" stroke="none" 
	d="
M178.079010,335.826721 
	C177.996628,335.597351 178.181625,335.282196 178.638580,334.886993 
	C178.722473,335.118286 178.534439,335.429626 178.079010,335.826721 
z"/>
<path fill="#E58D0D" opacity="1.000000" stroke="none" 
	d="
M161.082001,352.829376 
	C161.000626,352.600494 161.185379,352.285675 161.642578,351.893250 
	C161.726074,352.124908 161.537109,352.434143 161.082001,352.829376 
z"/>
<path fill="#E58D0D" opacity="1.000000" stroke="none" 
	d="
M162.082169,351.829285 
	C162.000732,351.600494 162.185364,351.285614 162.642395,350.893127 
	C162.725952,351.124725 162.537094,351.433990 162.082169,351.829285 
z"/>
<path fill="#E58D0D" opacity="1.000000" stroke="none" 
	d="
M163.082016,350.829132 
	C163.000519,350.600250 163.185120,350.285370 163.642151,349.892822 
	C163.725754,350.124451 163.536942,350.433777 163.082016,350.829132 
z"/>
<path fill="#E58D0D" opacity="1.000000" stroke="none" 
	d="
M164.081787,349.828979 
	C164.000198,349.600006 164.184814,349.285095 164.641846,348.892426 
	C164.725510,349.124115 164.536743,349.433563 164.081787,349.828979 
z"/>
<path fill="#E58D0D" opacity="1.000000" stroke="none" 
	d="
M165.081451,348.828827 
	C164.999832,348.599762 165.184494,348.284821 165.641632,347.892151 
	C165.725311,348.123932 165.536530,348.433441 165.081451,348.828827 
z"/>
<path fill="#E58D0D" opacity="1.000000" stroke="none" 
	d="
M166.081238,347.828674 
	C165.999573,347.599518 166.184296,347.284576 166.641495,346.891937 
	C166.725189,347.123810 166.536392,347.433380 166.081238,347.828674 
z"/>
<path fill="#E58D0D" opacity="1.000000" stroke="none" 
	d="
M167.081085,346.828583 
	C166.999451,346.599396 167.184204,346.284454 167.641449,345.891815 
	C167.725113,346.123688 167.536301,346.433258 167.081085,346.828583 
z"/>
<path fill="#E4911A" opacity="1.000000" stroke="none" 
	d="
M145.066986,368.809387 
	C144.981247,368.575592 145.165726,368.266266 145.617371,367.876831 
	C145.702087,368.109070 145.519653,368.421448 145.066986,368.809387 
z"/>
<path fill="#E58D0D" opacity="1.000000" stroke="none" 
	d="
M169.080994,344.828552 
	C168.999313,344.599304 169.184082,344.284393 169.641327,343.891724 
	C169.725037,344.123596 169.536240,344.433197 169.080994,344.828552 
z"/>
<path fill="#E58D0D" opacity="1.000000" stroke="none" 
	d="
M170.080933,343.828491 
	C169.999207,343.599274 170.183960,343.284363 170.641205,342.891663 
	C170.724945,343.123535 170.536179,343.433167 170.080933,343.828491 
z"/>
<path fill="#E58D0D" opacity="1.000000" stroke="none" 
	d="
M171.080780,342.828430 
	C170.998978,342.599121 171.183701,342.284180 171.640930,341.891357 
	C171.724701,342.123260 171.536011,342.433014 171.080780,342.828430 
z"/>
<path fill="#E58D0D" opacity="1.000000" stroke="none" 
	d="
M172.080551,341.828186 
	C171.998657,341.598846 172.183350,341.283875 172.640503,340.890991 
	C172.724365,341.122925 172.535751,341.432739 172.080551,341.828186 
z"/>
<path fill="#E58D0D" opacity="1.000000" stroke="none" 
	d="
M173.080231,340.827911 
	C172.998245,340.598419 173.182953,340.283417 173.640137,339.890564 
	C173.724060,340.122589 173.535492,340.432526 173.080231,340.827911 
z"/>
<path fill="#E58D0D" opacity="1.000000" stroke="none" 
	d="
M174.079910,339.827606 
	C173.997864,339.597961 174.182617,339.283020 174.639862,338.890167 
	C174.723801,339.122284 174.535263,339.432281 174.079910,339.827606 
z"/>
<path fill="#E58D0D" opacity="1.000000" stroke="none" 
	d="
M175.079651,338.827454 
	C174.997589,338.597748 175.182373,338.282806 175.639648,337.889923 
	C175.723587,338.122070 175.535049,338.432098 175.079651,338.827454 
z"/>
<path fill="#E58D0D" opacity="1.000000" stroke="none" 
	d="
M176.079468,337.827332 
	C175.997360,337.597595 176.182220,337.282654 176.639526,336.889648 
	C176.723465,337.121765 176.534958,337.431915 176.079468,337.827332 
z"/>
<path fill="#E4911A" opacity="1.000000" stroke="none" 
	d="
M141.066879,372.809326 
	C140.981293,372.575867 141.165955,372.266541 141.617630,371.876648 
	C141.702133,372.108521 141.519623,372.421021 141.066879,372.809326 
z"/>
<path fill="#E58D0D" opacity="1.000000" stroke="none" 
	d="
M177.079163,336.827209 
	C176.997086,336.597534 177.182022,336.282593 177.639374,335.889282 
	C177.723236,336.121246 177.534714,336.431580 177.079163,336.827209 
z"/>
<path fill="#E4911A" opacity="1.000000" stroke="none" 
	d="
M157.188583,375.069397 
	C157.420975,374.984619 157.730072,375.169312 158.119843,375.620850 
	C157.888794,375.704773 157.577042,375.521820 157.188583,375.069397 
z"/>
<path fill="#E4911A" opacity="1.000000" stroke="none" 
	d="
M138.067596,375.809814 
	C137.982101,375.576508 138.166641,375.267212 138.618164,374.877258 
	C138.702637,375.109009 138.520142,375.421387 138.067596,375.809814 
z"/>
<path fill="#E4911A" opacity="1.000000" stroke="none" 
	d="
M156.188629,374.069336 
	C156.421036,373.984558 156.730118,374.169281 157.119888,374.620850 
	C156.888809,374.704773 156.577057,374.521790 156.188629,374.069336 
z"/>
<path fill="#E4911A" opacity="1.000000" stroke="none" 
	d="
M139.067291,374.809601 
	C138.981750,374.576263 139.166321,374.266937 139.617859,373.876953 
	C139.702377,374.108704 139.519897,374.421173 139.067291,374.809601 
z"/>
<path fill="#E4911A" opacity="1.000000" stroke="none" 
	d="
M155.188766,373.069214 
	C155.421234,372.984375 155.730286,373.169098 156.119995,373.620728 
	C155.888901,373.704651 155.577133,373.521698 155.188766,373.069214 
z"/>
<path fill="#E4911A" opacity="1.000000" stroke="none" 
	d="
M140.067017,373.809479 
	C139.981430,373.576050 140.166046,373.266724 140.617676,372.876709 
	C140.702194,373.108551 140.519699,373.421051 140.067017,373.809479 
z"/>
<path fill="#E4911A" opacity="1.000000" stroke="none" 
	d="
M154.188995,372.068939 
	C154.421570,371.984100 154.730637,372.168884 155.120300,372.620575 
	C154.889099,372.704529 154.577286,372.521545 154.188995,372.068939 
z"/>
<path fill="#E4911A" opacity="1.000000" stroke="none" 
	d="
M158.188599,376.069458 
	C158.420959,375.984650 158.730057,376.169342 159.119843,376.620880 
	C158.888779,376.704803 158.577057,376.521881 158.188599,376.069458 
z"/>
<path fill="#E4911A" opacity="1.000000" stroke="none" 
	d="
M153.189255,371.068604 
	C153.421967,370.983673 153.731049,371.168427 154.120682,371.620117 
	C153.889374,371.704163 153.577499,371.521240 153.189255,371.068604 
z"/>
<path fill="#E4911A" opacity="1.000000" stroke="none" 
	d="
M142.066818,371.809326 
	C141.981232,371.575836 142.165894,371.266541 142.617584,370.876648 
	C142.702087,371.108521 142.519577,371.421021 142.066818,371.809326 
z"/>
<path fill="#E4911A" opacity="1.000000" stroke="none" 
	d="
M152.189514,370.068481 
	C152.422363,369.983398 152.731491,370.168060 153.121124,370.619690 
	C152.889694,370.703857 152.577728,370.521057 152.189514,370.068481 
z"/>
<path fill="#E4911A" opacity="1.000000" stroke="none" 
	d="
M143.066788,370.809296 
	C142.981201,370.575806 143.165863,370.266510 143.617569,369.876648 
	C143.702087,370.108521 143.519562,370.421021 143.066788,370.809296 
z"/>
<path fill="#E4911A" opacity="1.000000" stroke="none" 
	d="
M151.189667,369.068542 
	C151.422684,368.983276 151.731888,369.167786 152.121536,369.619324 
	C151.889938,369.703674 151.577896,369.520996 151.189667,369.068542 
z"/>
<path fill="#E4911A" opacity="1.000000" stroke="none" 
	d="
M144.066833,369.809326 
	C143.981201,369.575745 144.165817,369.266449 144.617493,368.876709 
	C144.702087,369.108734 144.519592,369.421173 144.066833,369.809326 
z"/>
<path fill="#E4911A" opacity="1.000000" stroke="none" 
	d="
M150.189774,368.068726 
	C150.422958,367.983246 150.732224,368.167572 151.121765,368.618958 
	C150.889969,368.703522 150.577896,368.520996 150.189774,368.068726 
z"/>
<path fill="#E58D0D" opacity="1.000000" stroke="none" 
	d="
M178.984894,334.868347 
	C178.859970,334.702698 178.916763,334.537964 179.187256,334.222412 
	C179.322845,334.337494 179.244736,334.603394 178.984894,334.868347 
z"/>
<path fill="#FFFEFD" opacity="1.000000" stroke="none" 
	d="
M323.046509,157.389084 
	C323.046509,152.268951 323.046509,147.148834 323.046509,141.749817 
	C348.017059,141.749817 372.670776,141.749817 397.979431,141.749817 
	C397.979431,146.725601 397.979431,151.627487 397.498962,157.000305 
	C372.361176,157.443848 347.703857,157.416473 323.046509,157.389084 
z"/>
<path fill="#E1890A" opacity="1.000000" stroke="none" 
	d="
M323.228302,157.795563 
	C347.703857,157.416473 372.361176,157.443848 397.485809,157.429657 
	C396.712524,157.925720 395.473846,158.927124 394.231140,158.932220 
	C371.544128,159.025146 348.856598,159.007782 326.169312,158.963562 
	C325.249084,158.961761 324.329803,158.467072 323.228302,157.795563 
z"/>
<path fill="#E3E3E3" opacity="1.000000" stroke="none" 
	d="
M258.165527,333.990906 
	C258.165527,307.207672 258.165527,280.424438 258.165527,252.996017 
	C326.512634,252.996017 394.719727,252.996017 463.384155,253.001511 
	C463.887054,279.693512 463.932556,306.380035 463.447876,333.532074 
	C441.698761,333.992615 420.479858,333.987640 399.195251,333.553467 
	C399.027283,331.671631 398.924988,330.219025 398.815399,328.662415 
	C373.763245,328.662415 349.024872,328.662415 324.164581,328.662415 
	C324.001190,330.705597 323.870148,332.344116 323.286804,333.987335 
	C301.278168,333.991669 279.721863,333.991272 258.165527,333.990906 
z"/>
<path fill="#D6D6D6" opacity="1.000000" stroke="none" 
	d="
M258.476929,460.905457 
	C258.016479,439.196228 258.020660,417.559479 258.552765,395.460388 
	C326.657379,394.996704 394.234070,394.995422 461.810730,394.994141 
	C459.314209,409.263885 452.578461,421.523529 443.056854,432.115631 
	C425.865173,451.240143 404.418030,461.154572 378.409363,461.038513 
	C338.587494,460.860779 298.764252,460.982971 258.476929,460.905457 
z"/>
<path fill="#DCDCDC" opacity="1.000000" stroke="none" 
	d="
M461.964172,394.620026 
	C394.234070,394.995422 326.657379,394.996704 258.623474,394.996155 
	C258.117737,374.969452 258.069244,354.944580 258.093140,334.455322 
	C279.721863,333.991272 301.278168,333.991669 323.364471,334.444794 
	C323.894440,338.134430 323.894440,341.371307 323.894440,344.647552 
	C349.390533,344.647552 373.934967,344.647552 399.260956,344.647552 
	C399.260956,340.868134 399.260956,337.425415 399.260956,333.982697 
	C420.479858,333.987640 441.698761,333.992615 463.375671,333.995361 
	C463.867065,351.043610 463.989227,368.094879 463.851257,385.143982 
	C463.826691,388.182434 462.723022,391.212158 461.964172,394.620026 
M361.500000,362.215271 
	C349.099518,362.215271 336.699066,362.215271 324.415802,362.215271 
	C324.415802,368.258606 324.415802,373.458862 324.415802,378.635834 
	C349.421844,378.635834 373.948456,378.635834 398.680481,378.635834 
	C398.680481,373.108948 398.680481,367.921173 398.680481,362.215668 
	C386.370117,362.215668 374.435059,362.215668 361.500000,362.215271 
z"/>
<path fill="#7D7D7D" opacity="1.000000" stroke="none" 
	d="
M399.195251,333.553467 
	C399.260956,337.425415 399.260956,340.868134 399.260956,344.647552 
	C373.934967,344.647552 349.390533,344.647552 323.894440,344.647552 
	C323.894440,341.371307 323.894440,338.134430 323.816772,334.440063 
	C323.870148,332.344116 324.001190,330.705597 324.164581,328.662415 
	C349.024872,328.662415 373.763245,328.662415 398.815399,328.662415 
	C398.924988,330.219025 399.027283,331.671631 399.195251,333.553467 
z"/>
<path fill="#7B7B7B" opacity="1.000000" stroke="none" 
	d="
M362.000000,362.215454 
	C374.435059,362.215668 386.370117,362.215668 398.680481,362.215668 
	C398.680481,367.921173 398.680481,373.108948 398.680481,378.635834 
	C373.948456,378.635834 349.421844,378.635834 324.415802,378.635834 
	C324.415802,373.458862 324.415802,368.258606 324.415802,362.215271 
	C336.699066,362.215271 349.099518,362.215271 362.000000,362.215454 
z"/>
</svg>